# xmcd
#
# Track frame offsets:
#	150
#	31998
#	71175
#	120869
#	160095
#	195454
#
# Disc length: 2879 seconds
#
# Revision: 1
# Processed by: cddbd v1.5.2PL0 Copyright (c) Steve Scherf et al.
# Submitted via: audiograbber 1.83.01
#
DISCID=450b3d06
DTITLE=Grateful Dead - 82-03-14 Recreation Hall, Uni of California, Davis CA
DYEAR=1900
DGENRE=
TTITLE0=Samson and Delilah
TTITLE1=Ship Of Fools
TTITLE2=Playing In The Band
TTITLE3=Scarlet Begonias
TTITLE4=Fire On The Mountain
TTITLE5=Drums
EXTD=
EXTT0=
EXTT1=
EXTT2=
EXTT3=
EXTT4=
EXTT5=
PLAYORDER=
